<mxfile host="app.diagrams.net" agent="Mozilla/5.0 (Windows NT 10.0; Win64; x64) AppleWebKit/537.36 (KHTML, like Gecko) Chrome/139.0.0.0 Safari/537.36" version="28.2.0">
  <diagram name="Trang-1" id="x_lI1ugMf1hIqDc8v5sX">
    <mxGraphModel dx="2328" dy="1987" grid="1" gridSize="10" guides="1" tooltips="1" connect="1" arrows="1" fold="1" page="1" pageScale="1" pageWidth="827" pageHeight="1169" math="0" shadow="0">
      <root>
        <mxCell id="0" />
        <mxCell id="1" parent="0" />
        <mxCell id="RFNVdk6tZnTJH3duXESI-53" value="" style="rounded=0;whiteSpace=wrap;html=1;" vertex="1" parent="1">
          <mxGeometry x="50" y="-120" width="1220" height="1080" as="geometry" />
        </mxCell>
        <mxCell id="RFNVdk6tZnTJH3duXESI-1" value="Khách hàng" style="shape=umlActor;verticalLabelPosition=bottom;verticalAlign=top;html=1;outlineConnect=0;" vertex="1" parent="1">
          <mxGeometry x="-90" y="180" width="70" height="100" as="geometry" />
        </mxCell>
        <mxCell id="RFNVdk6tZnTJH3duXESI-2" value="Xem thông tin tour&#xa;theo vùng miền" style="whiteSpace=wrap;strokeWidth=2;" vertex="1" parent="1">
          <mxGeometry x="140" y="24" width="195" height="78" as="geometry" />
        </mxCell>
        <mxCell id="RFNVdk6tZnTJH3duXESI-3" value="Tìm kiếm tour&#xa;theo tiêu chí" style="whiteSpace=wrap;strokeWidth=2;" vertex="1" parent="1">
          <mxGeometry x="220" y="130" width="162" height="78" as="geometry" />
        </mxCell>
        <mxCell id="RFNVdk6tZnTJH3duXESI-4" value="Xem chi tiết tour&#xa;và lịch trình" style="whiteSpace=wrap;strokeWidth=2;" vertex="1" parent="1">
          <mxGeometry x="250" y="260" width="183" height="78" as="geometry" />
        </mxCell>
        <mxCell id="RFNVdk6tZnTJH3duXESI-5" value="Đặt tour trực tuyến" style="whiteSpace=wrap;strokeWidth=2;" vertex="1" parent="1">
          <mxGeometry x="212" y="400" width="202" height="54" as="geometry" />
        </mxCell>
        <mxCell id="RFNVdk6tZnTJH3duXESI-8" value="Kiểm tra dữ liệu&#xa;đầu vào" style="whiteSpace=wrap;strokeWidth=2;" vertex="1" parent="1">
          <mxGeometry x="565" y="270" width="179" height="78" as="geometry" />
        </mxCell>
        <mxCell id="RFNVdk6tZnTJH3duXESI-9" value="Lưu trữ đơn đặt tour" style="whiteSpace=wrap;strokeWidth=2;" vertex="1" parent="1">
          <mxGeometry x="526" y="510" width="212" height="54" as="geometry" />
        </mxCell>
        <mxCell id="RFNVdk6tZnTJH3duXESI-10" value="Tự động hủy đơn&#xa;sau 24h" style="whiteSpace=wrap;strokeWidth=2;" vertex="1" parent="1">
          <mxGeometry x="565" y="390" width="184" height="78" as="geometry" />
        </mxCell>
        <mxCell id="RFNVdk6tZnTJH3duXESI-11" value="" style="endArrow=classic;html=1;rounded=0;entryX=0.149;entryY=1.013;entryDx=0;entryDy=0;entryPerimeter=0;" edge="1" parent="1" source="RFNVdk6tZnTJH3duXESI-1" target="RFNVdk6tZnTJH3duXESI-2">
          <mxGeometry width="50" height="50" relative="1" as="geometry">
            <mxPoint x="390" y="380" as="sourcePoint" />
            <mxPoint x="440" y="330" as="targetPoint" />
          </mxGeometry>
        </mxCell>
        <mxCell id="RFNVdk6tZnTJH3duXESI-12" value="" style="endArrow=classic;html=1;rounded=0;entryX=0;entryY=1;entryDx=0;entryDy=0;" edge="1" parent="1" source="RFNVdk6tZnTJH3duXESI-1" target="RFNVdk6tZnTJH3duXESI-3">
          <mxGeometry width="50" height="50" relative="1" as="geometry">
            <mxPoint x="250" y="310" as="sourcePoint" />
            <mxPoint x="309" y="230" as="targetPoint" />
          </mxGeometry>
        </mxCell>
        <mxCell id="RFNVdk6tZnTJH3duXESI-13" value="" style="endArrow=classic;html=1;rounded=0;entryX=0;entryY=0.5;entryDx=0;entryDy=0;" edge="1" parent="1" source="RFNVdk6tZnTJH3duXESI-1" target="RFNVdk6tZnTJH3duXESI-4">
          <mxGeometry width="50" height="50" relative="1" as="geometry">
            <mxPoint x="210" y="380" as="sourcePoint" />
            <mxPoint x="269" y="300" as="targetPoint" />
          </mxGeometry>
        </mxCell>
        <mxCell id="RFNVdk6tZnTJH3duXESI-14" value="" style="endArrow=classic;html=1;rounded=0;entryX=0;entryY=0;entryDx=0;entryDy=0;" edge="1" parent="1" source="RFNVdk6tZnTJH3duXESI-1" target="RFNVdk6tZnTJH3duXESI-5">
          <mxGeometry width="50" height="50" relative="1" as="geometry">
            <mxPoint x="120" y="250" as="sourcePoint" />
            <mxPoint x="259" y="350" as="targetPoint" />
          </mxGeometry>
        </mxCell>
        <mxCell id="RFNVdk6tZnTJH3duXESI-15" value="&amp;lt;&amp;lt;include&amp;gt;&amp;gt;" style="html=1;verticalAlign=bottom;labelBackgroundColor=none;endArrow=open;endFill=0;dashed=1;rounded=0;entryX=0.017;entryY=0.654;entryDx=0;entryDy=0;entryPerimeter=0;exitX=0.965;exitY=-0.056;exitDx=0;exitDy=0;exitPerimeter=0;" edge="1" parent="1" source="RFNVdk6tZnTJH3duXESI-5" target="RFNVdk6tZnTJH3duXESI-8">
          <mxGeometry width="160" relative="1" as="geometry">
            <mxPoint x="330" y="350" as="sourcePoint" />
            <mxPoint x="490" y="350" as="targetPoint" />
          </mxGeometry>
        </mxCell>
        <mxCell id="RFNVdk6tZnTJH3duXESI-17" value="&amp;lt;&amp;lt;include&amp;gt;&amp;gt;" style="html=1;verticalAlign=bottom;labelBackgroundColor=none;endArrow=open;endFill=0;dashed=1;rounded=0;entryX=0;entryY=0;entryDx=0;entryDy=0;exitX=1;exitY=0.75;exitDx=0;exitDy=0;" edge="1" parent="1" source="RFNVdk6tZnTJH3duXESI-5" target="RFNVdk6tZnTJH3duXESI-9">
          <mxGeometry width="160" relative="1" as="geometry">
            <mxPoint x="420" y="556" as="sourcePoint" />
            <mxPoint x="586" y="500" as="targetPoint" />
          </mxGeometry>
        </mxCell>
        <mxCell id="RFNVdk6tZnTJH3duXESI-18" value="Yêu cầu hủy/&#xa;thay đổi tour" style="whiteSpace=wrap;strokeWidth=2;" vertex="1" parent="1">
          <mxGeometry x="212" y="660" width="158" height="78" as="geometry" />
        </mxCell>
        <mxCell id="RFNVdk6tZnTJH3duXESI-19" value="Xử lý thanh toán&#xa;tự động" style="whiteSpace=wrap;strokeWidth=2;" vertex="1" parent="1">
          <mxGeometry x="569" y="600" width="180" height="78" as="geometry" />
        </mxCell>
        <mxCell id="RFNVdk6tZnTJH3duXESI-20" value="Tính toán hoàn tiền" style="whiteSpace=wrap;strokeWidth=2;" vertex="1" parent="1">
          <mxGeometry x="553.5" y="720" width="202" height="54" as="geometry" />
        </mxCell>
        <mxCell id="RFNVdk6tZnTJH3duXESI-21" value="include" style="curved=1;dashed=1;dashPattern=2 3;startArrow=none;endArrow=block;exitX=1;exitY=0.5;entryX=0.011;entryY=0.365;rounded=0;exitDx=0;exitDy=0;entryDx=0;entryDy=0;entryPerimeter=0;" edge="1" parent="1" target="RFNVdk6tZnTJH3duXESI-19" source="RFNVdk6tZnTJH3duXESI-23">
          <mxGeometry relative="1" as="geometry">
            <Array as="points" />
            <mxPoint x="540" y="853" as="sourcePoint" />
          </mxGeometry>
        </mxCell>
        <mxCell id="RFNVdk6tZnTJH3duXESI-22" value="include" style="curved=1;dashed=1;dashPattern=2 3;startArrow=none;endArrow=block;exitX=1;exitY=0.5;entryX=0;entryY=0.5;rounded=0;exitDx=0;exitDy=0;entryDx=0;entryDy=0;" edge="1" parent="1" source="RFNVdk6tZnTJH3duXESI-18" target="RFNVdk6tZnTJH3duXESI-20">
          <mxGeometry relative="1" as="geometry">
            <Array as="points" />
          </mxGeometry>
        </mxCell>
        <mxCell id="RFNVdk6tZnTJH3duXESI-23" value="Xử lý thanh toán&#xa;tự động" style="whiteSpace=wrap;strokeWidth=2;" vertex="1" parent="1">
          <mxGeometry x="201" y="507" width="180" height="78" as="geometry" />
        </mxCell>
        <mxCell id="RFNVdk6tZnTJH3duXESI-24" value="&amp;lt;&amp;lt;extend&amp;gt;&amp;gt;" style="html=1;verticalAlign=bottom;labelBackgroundColor=none;endArrow=open;endFill=0;dashed=1;rounded=0;entryX=0;entryY=0.5;entryDx=0;entryDy=0;exitX=1;exitY=0.25;exitDx=0;exitDy=0;" edge="1" parent="1" source="RFNVdk6tZnTJH3duXESI-5" target="RFNVdk6tZnTJH3duXESI-10">
          <mxGeometry width="160" relative="1" as="geometry">
            <mxPoint x="330" y="520" as="sourcePoint" />
            <mxPoint x="490" y="520" as="targetPoint" />
          </mxGeometry>
        </mxCell>
        <mxCell id="RFNVdk6tZnTJH3duXESI-25" value="" style="endArrow=classic;html=1;rounded=0;entryX=0;entryY=0.25;entryDx=0;entryDy=0;" edge="1" parent="1" source="RFNVdk6tZnTJH3duXESI-1" target="RFNVdk6tZnTJH3duXESI-23">
          <mxGeometry width="50" height="50" relative="1" as="geometry">
            <mxPoint x="90" y="410" as="sourcePoint" />
            <mxPoint x="192" y="537" as="targetPoint" />
          </mxGeometry>
        </mxCell>
        <mxCell id="RFNVdk6tZnTJH3duXESI-26" value="" style="endArrow=classic;html=1;rounded=0;entryX=0;entryY=0.5;entryDx=0;entryDy=0;" edge="1" parent="1" source="RFNVdk6tZnTJH3duXESI-1" target="RFNVdk6tZnTJH3duXESI-18">
          <mxGeometry width="50" height="50" relative="1" as="geometry">
            <mxPoint x="120" y="590" as="sourcePoint" />
            <mxPoint x="222" y="717" as="targetPoint" />
          </mxGeometry>
        </mxCell>
        <mxCell id="RFNVdk6tZnTJH3duXESI-27" value="Tạo tour mới" style="whiteSpace=wrap;strokeWidth=2;" vertex="1" parent="1">
          <mxGeometry x="950" y="10" width="155" height="54" as="geometry" />
        </mxCell>
        <mxCell id="RFNVdk6tZnTJH3duXESI-28" value="Cập nhật thông tin tour" style="whiteSpace=wrap;strokeWidth=2;" vertex="1" parent="1">
          <mxGeometry x="840" y="90" width="231" height="54" as="geometry" />
        </mxCell>
        <mxCell id="RFNVdk6tZnTJH3duXESI-29" value="Quản lý đơn đặt tour" style="whiteSpace=wrap;strokeWidth=2;" vertex="1" parent="1">
          <mxGeometry x="860" y="180" width="212" height="54" as="geometry" />
        </mxCell>
        <mxCell id="RFNVdk6tZnTJH3duXESI-30" value="Thống kê doanh thu" style="whiteSpace=wrap;strokeWidth=2;" vertex="1" parent="1">
          <mxGeometry x="890" y="260" width="203" height="54" as="geometry" />
        </mxCell>
        <mxCell id="RFNVdk6tZnTJH3duXESI-31" value="Xử lý yêu cầu&#xa;hủy/thay đổi" style="whiteSpace=wrap;strokeWidth=2;" vertex="1" parent="1">
          <mxGeometry x="1010" y="338" width="158" height="78" as="geometry" />
        </mxCell>
        <mxCell id="RFNVdk6tZnTJH3duXESI-32" value="Nhân viên" style="shape=umlActor;verticalLabelPosition=bottom;verticalAlign=top;html=1;outlineConnect=0;" vertex="1" parent="1">
          <mxGeometry x="1360" y="134" width="70" height="100" as="geometry" />
        </mxCell>
        <mxCell id="RFNVdk6tZnTJH3duXESI-33" value="" style="endArrow=classic;html=1;rounded=0;entryX=1;entryY=0.5;entryDx=0;entryDy=0;" edge="1" parent="1" target="RFNVdk6tZnTJH3duXESI-27">
          <mxGeometry width="50" height="50" relative="1" as="geometry">
            <mxPoint x="1350" y="160" as="sourcePoint" />
            <mxPoint x="1266" y="120" as="targetPoint" />
          </mxGeometry>
        </mxCell>
        <mxCell id="RFNVdk6tZnTJH3duXESI-34" value="" style="endArrow=classic;html=1;rounded=0;entryX=1;entryY=0.5;entryDx=0;entryDy=0;" edge="1" parent="1" source="RFNVdk6tZnTJH3duXESI-32" target="RFNVdk6tZnTJH3duXESI-28">
          <mxGeometry width="50" height="50" relative="1" as="geometry">
            <mxPoint x="1395" y="273" as="sourcePoint" />
            <mxPoint x="1150" y="150" as="targetPoint" />
          </mxGeometry>
        </mxCell>
        <mxCell id="RFNVdk6tZnTJH3duXESI-35" value="" style="endArrow=classic;html=1;rounded=0;entryX=0.991;entryY=0.389;entryDx=0;entryDy=0;entryPerimeter=0;" edge="1" parent="1" target="RFNVdk6tZnTJH3duXESI-29">
          <mxGeometry width="50" height="50" relative="1" as="geometry">
            <mxPoint x="1350" y="207" as="sourcePoint" />
            <mxPoint x="1260" y="270" as="targetPoint" />
          </mxGeometry>
        </mxCell>
        <mxCell id="RFNVdk6tZnTJH3duXESI-36" value="" style="endArrow=classic;html=1;rounded=0;entryX=1;entryY=0.5;entryDx=0;entryDy=0;" edge="1" parent="1" target="RFNVdk6tZnTJH3duXESI-30">
          <mxGeometry width="50" height="50" relative="1" as="geometry">
            <mxPoint x="1350" y="220" as="sourcePoint" />
            <mxPoint x="1340" y="350" as="targetPoint" />
          </mxGeometry>
        </mxCell>
        <mxCell id="RFNVdk6tZnTJH3duXESI-37" value="" style="endArrow=classic;html=1;rounded=0;entryX=1;entryY=0.5;entryDx=0;entryDy=0;" edge="1" parent="1" target="RFNVdk6tZnTJH3duXESI-31">
          <mxGeometry width="50" height="50" relative="1" as="geometry">
            <mxPoint x="1350" y="240" as="sourcePoint" />
            <mxPoint x="1190" y="400" as="targetPoint" />
          </mxGeometry>
        </mxCell>
        <mxCell id="RFNVdk6tZnTJH3duXESI-38" value="Quản lý nhân viên" style="whiteSpace=wrap;strokeWidth=2;" vertex="1" parent="1">
          <mxGeometry x="960" y="453" width="189" height="54" as="geometry" />
        </mxCell>
        <mxCell id="RFNVdk6tZnTJH3duXESI-39" value="Phân công hướng dẫn viên" style="whiteSpace=wrap;strokeWidth=2;" vertex="1" parent="1">
          <mxGeometry x="843" y="519" width="250" height="54" as="geometry" />
        </mxCell>
        <mxCell id="RFNVdk6tZnTJH3duXESI-40" value="Giám sát hoạt động&#xa;hệ thống" style="whiteSpace=wrap;strokeWidth=2;" vertex="1" parent="1">
          <mxGeometry x="900" y="600" width="201" height="78" as="geometry" />
        </mxCell>
        <mxCell id="RFNVdk6tZnTJH3duXESI-41" value="Quản lí" style="shape=umlActor;verticalLabelPosition=bottom;verticalAlign=top;html=1;outlineConnect=0;" vertex="1" parent="1">
          <mxGeometry x="1380" y="470" width="70" height="100" as="geometry" />
        </mxCell>
        <mxCell id="RFNVdk6tZnTJH3duXESI-42" value="" style="endArrow=classic;html=1;rounded=0;" edge="1" parent="1" source="RFNVdk6tZnTJH3duXESI-41">
          <mxGeometry width="50" height="50" relative="1" as="geometry">
            <mxPoint x="880" y="520" as="sourcePoint" />
            <mxPoint x="1150" y="480" as="targetPoint" />
          </mxGeometry>
        </mxCell>
        <mxCell id="RFNVdk6tZnTJH3duXESI-44" value="" style="endArrow=classic;html=1;rounded=0;entryX=1;entryY=0.5;entryDx=0;entryDy=0;" edge="1" parent="1" target="RFNVdk6tZnTJH3duXESI-39">
          <mxGeometry width="50" height="50" relative="1" as="geometry">
            <mxPoint x="1370" y="530" as="sourcePoint" />
            <mxPoint x="1200" y="570" as="targetPoint" />
          </mxGeometry>
        </mxCell>
        <mxCell id="RFNVdk6tZnTJH3duXESI-45" value="" style="endArrow=classic;html=1;rounded=0;" edge="1" parent="1" target="RFNVdk6tZnTJH3duXESI-40">
          <mxGeometry width="50" height="50" relative="1" as="geometry">
            <mxPoint x="1360" y="550" as="sourcePoint" />
            <mxPoint x="1290" y="600" as="targetPoint" />
          </mxGeometry>
        </mxCell>
        <mxCell id="RFNVdk6tZnTJH3duXESI-46" value="Phân quyền người dùng" style="whiteSpace=wrap;strokeWidth=2;" vertex="1" parent="1">
          <mxGeometry x="890" y="720" width="228" height="54" as="geometry" />
        </mxCell>
        <mxCell id="RFNVdk6tZnTJH3duXESI-47" value="Cập nhật chức năng&#xa;hệ thống" style="whiteSpace=wrap;strokeWidth=2;" vertex="1" parent="1">
          <mxGeometry x="913" y="840" width="205" height="78" as="geometry" />
        </mxCell>
        <mxCell id="RFNVdk6tZnTJH3duXESI-50" value="Admin" style="shape=umlActor;verticalLabelPosition=bottom;verticalAlign=top;html=1;outlineConnect=0;" vertex="1" parent="1">
          <mxGeometry x="1320" y="738" width="70" height="100" as="geometry" />
        </mxCell>
        <mxCell id="RFNVdk6tZnTJH3duXESI-51" value="" style="endArrow=classic;html=1;rounded=0;entryX=1;entryY=0.5;entryDx=0;entryDy=0;" edge="1" parent="1" source="RFNVdk6tZnTJH3duXESI-50" target="RFNVdk6tZnTJH3duXESI-46">
          <mxGeometry width="50" height="50" relative="1" as="geometry">
            <mxPoint x="920" y="630" as="sourcePoint" />
            <mxPoint x="970" y="580" as="targetPoint" />
          </mxGeometry>
        </mxCell>
        <mxCell id="RFNVdk6tZnTJH3duXESI-52" value="" style="endArrow=classic;html=1;rounded=0;entryX=1;entryY=0.5;entryDx=0;entryDy=0;" edge="1" parent="1" source="RFNVdk6tZnTJH3duXESI-50" target="RFNVdk6tZnTJH3duXESI-47">
          <mxGeometry width="50" height="50" relative="1" as="geometry">
            <mxPoint x="1462" y="835" as="sourcePoint" />
            <mxPoint x="1260" y="800" as="targetPoint" />
          </mxGeometry>
        </mxCell>
        <mxCell id="RFNVdk6tZnTJH3duXESI-54" value="Website Lucky Tours" style="text;html=1;align=center;verticalAlign=middle;whiteSpace=wrap;rounded=0;fontSize=30;fontStyle=1" vertex="1" parent="1">
          <mxGeometry x="414" y="-100" width="450" height="30" as="geometry" />
        </mxCell>
      </root>
    </mxGraphModel>
  </diagram>
</mxfile>
